# xmcd
#
# Track frame offsets: 
#        150
#        16410
#        30183
#        50814
#        67500
#        87192
#        101934
#        117668
#        132082
#        149101
#        174098
#        192312
#        210012
#        226262
#        253399
#        265940
#        280409
#        296896
#        312481
#
# Disc length: 4325 seconds
#
# Revision: 5
# Processed by: cddbd v1.5.2PL0 Copyright (c) Steve Scherf et al.
# Submitted via: ExactAudioCopyFreeDBPlugin 1.0
#
DISCID=1c10e313
DTITLE=Various Artist - Bääärenstark!!! Mallorca Hitmix 2008 - CD2
DYEAR=2008
DGENRE=Schlager
TTITLE0=Howard Carpendale - Hi
TTITLE1=Andrea Berg - Wenn du mich willst (dann küss mich doch)
TTITLE2=Udo Jürgens - Ich war noch niemals in New York
TTITLE3=Nicole and Trio - Ich hab dich doch lieb
TTITLE4=Die Flippers - Hit auf Hit Mix 7
TTITLE5=Die Amigos - Amigos Hit-Mix
TTITLE6=Uwe Busse - Sieben Sünden
TTITLE7=G.G.Anderson - Du bist die Sonne
TTITLE8=Mary Roos - Leider lieb ich dich immer noch
TTITLE9=Michelle - Hit-Medley
TTITLE10=Mike Bauhaus - Es fährt ein Zug (Reloaded)
TTITLE11=Rosanna Rocci - Rosanna Rocci Mix
TTITLE12=Francine Jordi - Tu's doch tu's
TTITLE13=Juliane Werding - Medley 2000
TTITLE14=Schnuffel - Kuschel Song
TTITLE15=Hape Kerkeling - Das Ding muss rein
TTITLE16=Chris Rabatz - Steht auf!
TTITLE17=Klaus and Klaus - Ein Rudi Völler
TTITLE18=Lothar Matthäus - Muss i denn zum Städtele hinaus
EXTD=
EXTT0=
EXTT1=
EXTT2=
EXTT3=
EXTT4=
EXTT5=
EXTT6=
EXTT7=
EXTT8=
EXTT9=
EXTT10=
EXTT11=
EXTT12=
EXTT13=
EXTT14=
EXTT15=
EXTT16=
EXTT17=
EXTT18=
PLAYORDER=
